TITLE ""
FILE "Step3_Track01.mp3" MP3
  TRACK 01 AUDIO
    TITLE "Step3_Track01_01"
    INDEX 01 00:00:00
  TRACK 02 AUDIO
    TITLE "Step3_Track01_02"
    INDEX 01 00:00:18
  TRACK 03 AUDIO
    TITLE "Step3_Track01_03"
    INDEX 01 00:01:45
  TRACK 04 AUDIO
    TITLE "Step3_Track01_04"
    INDEX 01 00:02:25
  TRACK 05 AUDIO
    TITLE "Step3_Track01_05"
    INDEX 01 00:03:18
  TRACK 06 AUDIO
    TITLE "Step3_Track01_06"
    INDEX 01 00:03:40
  TRACK 07 AUDIO
    TITLE "Step3_Track01_07"
    INDEX 01 00:06:31
  TRACK 08 AUDIO
    TITLE "Step3_Track01_08"
    INDEX 01 00:06:58
  TRACK 09 AUDIO
    TITLE "Step3_Track01_09"
    INDEX 01 00:07:51
  TRACK 10 AUDIO
    TITLE "Step3_Track01_10"
    INDEX 01 00:07:53
  TRACK 11 AUDIO
    TITLE "Step3_Track01_11"
    INDEX 01 00:10:32
  TRACK 12 AUDIO
    TITLE "Step3_Track01_12"
    INDEX 01 00:10:48
  TRACK 13 AUDIO
    TITLE "Step3_Track01_13"
    INDEX 01 00:11:45
  TRACK 14 AUDIO
    TITLE "Step3_Track01_14"
    INDEX 01 00:11:47
  TRACK 15 AUDIO
    TITLE "Step3_Track01_15"
    INDEX 01 00:14:07
  TRACK 16 AUDIO
    TITLE "Step3_Track01_16"
    INDEX 01 00:14:40
  TRACK 17 AUDIO
    TITLE "Step3_Track01_17"
    INDEX 01 00:15:41
  TRACK 18 AUDIO
    TITLE "Step3_Track01_18"
    INDEX 01 00:15:57
  TRACK 19 AUDIO
    TITLE "Step3_Track01_19"
    INDEX 01 00:19:15
  TRACK 20 AUDIO
    TITLE "Step3_Track01_20"
    INDEX 01 00:19:51
  TRACK 21 AUDIO
    TITLE "Step3_Track01_21"
    INDEX 01 00:20:52
  TRACK 22 AUDIO
    TITLE "Step3_Track01_22"
    INDEX 01 00:20:54
  TRACK 23 AUDIO
    TITLE "Step3_Track01_23"
    INDEX 01 00:22:51
  TRACK 24 AUDIO
    TITLE "Step3_Track01_24"
    INDEX 01 00:23:05
  TRACK 25 AUDIO
    TITLE "Step3_Track01_25"
    INDEX 01 00:24:07
  TRACK 26 AUDIO
    TITLE "Step3_Track01_26"
    INDEX 01 00:24:09
  TRACK 27 AUDIO
    TITLE "Step3_Track01_27"
    INDEX 01 00:26:68
  TRACK 28 AUDIO
    TITLE "Step3_Track01_28"
    INDEX 01 00:27:11
  TRACK 29 AUDIO
    TITLE "Step3_Track01_29"
    INDEX 01 00:28:13
  TRACK 30 AUDIO
    TITLE "Step3_Track01_30"
    INDEX 01 00:28:18
  TRACK 31 AUDIO
    TITLE "Step3_Track01_31"
    INDEX 01 00:31:54
  TRACK 32 AUDIO
    TITLE "Step3_Track01_32"
    INDEX 01 00:32:02
  TRACK 33 AUDIO
    TITLE "Step3_Track01_33"
    INDEX 01 00:32:57
  TRACK 34 AUDIO
    TITLE "Step3_Track01_34"
    INDEX 01 00:32:73
  TRACK 35 AUDIO
    TITLE "Step3_Track01_35"
    INDEX 01 00:36:28
  TRACK 36 AUDIO
    TITLE "Step3_Track01_36"
    INDEX 01 00:36:51
  TRACK 37 AUDIO
    TITLE "Step3_Track01_37"
    INDEX 01 00:37:51
  TRACK 38 AUDIO
    TITLE "Step3_Track01_38"
    INDEX 01 00:37:53
  TRACK 39 AUDIO
    TITLE "Step3_Track01_39"
    INDEX 01 00:39:59
  TRACK 40 AUDIO
    TITLE "Step3_Track01_40"
    INDEX 01 00:40:20
  TRACK 41 AUDIO
    TITLE "Step3_Track01_41"
    INDEX 01 00:41:13
  TRACK 42 AUDIO
    TITLE "Step3_Track01_42"
    INDEX 01 00:41:15
  TRACK 43 AUDIO
    TITLE "Step3_Track01_43"
    INDEX 01 00:44:04
